<svg version="1.0" xmlns="http://www.w3.org/2000/svg"
 width="1280.000000pt" height="1280.000000pt" viewBox="0 0 1280.000000 1280.000000"
 preserveAspectRatio="xMidYMid meet">
<g transform="translate(0.000000,1280.000000) scale(0.100000,-0.100000)"
fill="#000000" stroke="none">
<path d="M8840 10903 c-14 -2 -288 -40 -610 -84 -322 -44 -778 -107 -1015
-139 -236 -33 -761 -105 -1165 -160 -404 -56 -996 -137 -1315 -181 -319 -44
-677 -93 -795 -109 -791 -109 -942 -130 -951 -135 -5 -4 -9 -1497 -9 -3854 l0
-3847 28 -45 c36 -56 157 -169 230 -216 122 -78 301 -149 529 -209 l132 -35
328 45 c317 44 1559 215 2298 316 566 78 1908 262 2622 360 359 50 655 90 658
90 3 0 5 1735 5 3856 l0 3857 -32 -6 c-18 -2 -126 -17 -239 -33 l-206 -27
-209 108 c-115 59 -215 112 -221 117 -9 7 -13 59 -15 171 -2 97 -7 161 -13
162 -5 1 -21 0 -35 -2z"/>
</g>
</svg>